<svg width="12" height="12" viewBox="0 0 12 12" fill="none" xmlns="http://www.w3.org/2000/svg">
<path d="M6.78335 6.00003L11.3889 1.39447C11.4799 1.28819 11.5275 1.15149 11.5221 1.01167C11.5167 0.871845 11.4587 0.739213 11.3598 0.640271C11.2608 0.54133 11.1282 0.483367 10.9884 0.477966C10.8486 0.472566 10.7118 0.520125 10.6056 0.61114L6.00001 5.2167L1.39446 0.605584C1.28984 0.500971 1.14796 0.4422 1.00001 0.4422C0.852067 0.4422 0.710181 0.500971 0.605568 0.605584C0.500955 0.710197 0.442183 0.852083 0.442183 1.00003C0.442183 1.14797 0.500955 1.28986 0.605568 1.39447L5.21668 6.00003L0.605568 10.6056C0.547411 10.6554 0.500178 10.7167 0.466831 10.7856C0.433485 10.8545 0.414746 10.9296 0.411791 11.0061C0.408836 11.0826 0.421728 11.1589 0.449658 11.2302C0.477588 11.3015 0.519954 11.3662 0.574095 11.4204C0.628237 11.4745 0.692985 11.5169 0.764277 11.5448C0.835569 11.5728 0.911865 11.5856 0.988375 11.5827C1.06489 11.5797 1.13996 11.561 1.20888 11.5277C1.27781 11.4943 1.3391 11.4471 1.3889 11.3889L6.00001 6.78336L10.6056 11.3889C10.7118 11.4799 10.8486 11.5275 10.9884 11.5221C11.1282 11.5167 11.2608 11.4587 11.3598 11.3598C11.4587 11.2608 11.5167 11.1282 11.5221 10.9884C11.5275 10.8486 11.4799 10.7119 11.3889 10.6056L6.78335 6.00003Z" fill="#353C44"/>
</svg>
