<svg width="50" height="50" viewBox="0 0 50 50" fill="none" xmlns="http://www.w3.org/2000/svg">
<path d="M14.004 9.74902C19.194 9.74902 21.862 12.8535 21.862 18.286V19.353H16.817V17.9465C16.817 15.521 15.847 14.5995 14.149 14.5995C12.451 14.5995 11.481 15.521 11.481 17.9465C11.481 24.9315 21.91 26.241 21.91 35.942C21.91 41.3745 19.1935 44.479 13.955 44.479C8.7165 44.479 6 41.3745 6 35.942V33.8565H11.0445V36.282C11.0445 38.7075 12.1115 39.5805 13.8095 39.5805C15.5075 39.5805 16.5745 38.7075 16.5745 36.282C16.5745 29.297 6.1455 27.9875 6.1455 18.286C6.146 12.8535 8.8135 9.74902 14.004 9.74902Z" fill="white"/>
<path d="M24.9653 44.4795V21.3325H30.3008V30.4805H36.3638V21.3325H41.7963V44.4795H36.3643V35.331H30.3013V44.4795H24.9653Z" fill="white"/>
<path d="M41.7973 12.067V19.3325L33.3813 16.601L24.9658 19.3325V12.067L33.3813 14.7995L41.7973 12.067Z" fill="white"/>
<path d="M44.1071 14.743C44.1071 15.125 43.7971 15.4345 43.4156 15.4345C43.0326 15.4345 42.7231 15.1245 42.7231 14.743C42.7231 14.453 42.9016 14.2045 43.1546 14.102V10.3145L33.3811 13.4885L21.8496 9.744L33.3811 6L44.9146 9.744L43.6771 10.1455V14.102C43.9286 14.2045 44.1071 14.453 44.1071 14.743Z" fill="white"/>
</svg>
