<svg width="30" height="30" viewBox="0 0 30 30" fill="none" xmlns="http://www.w3.org/2000/svg">
<path d="M14.4812 6.81105C16.7714 6.81105 18.9295 7.79879 20.511 9.34289V9.34745C20.511 8.60595 21.0238 8.04504 21.7325 8.04504H21.9125C23.0309 8.04504 23.2549 9.0711 23.2549 9.39487L23.2596 20.9186C23.1818 21.6738 24.0612 22.0641 24.5496 21.5789C26.448 19.6791 28.7232 11.8027 23.3674 7.24244C18.3726 2.98592 11.6688 3.68911 8.1045 6.07867C4.31618 8.62511 1.89469 14.2497 4.24681 19.5359C6.81547 25.2992 14.1587 27.0184 18.5292 25.3037C20.7416 24.4345 21.7616 27.3403 19.4619 28.2916C15.9961 29.7299 6.33736 29.583 1.82626 21.983C-1.22146 16.849 -1.06021 7.81795 7.0264 3.13914C13.2071 -0.442467 21.3622 0.549841 26.2783 5.5433C31.4156 10.7684 31.1185 20.5447 26.103 24.3452C23.8315 26.0735 20.4585 24.3926 20.4829 21.8744L20.4575 21.0536C18.876 22.5776 16.7714 23.4714 14.4812 23.4714C9.95037 23.4714 5.96144 19.5897 5.96144 15.1864C5.96144 10.7356 9.95037 6.81287 14.4812 6.81287V6.81105ZM20.18 14.8681C20.0085 11.6422 17.5476 9.6995 14.574 9.6995H14.4615C11.0341 9.6995 9.13009 12.3262 9.13009 15.304C9.13009 18.643 11.4297 20.7517 14.4474 20.7517C17.8158 20.7517 20.0272 18.3539 20.1885 15.5174L20.18 14.8681Z" fill="#136995"/>
</svg>
