<svg width="30" height="30" viewBox="0 0 30 30" fill="none" xmlns="http://www.w3.org/2000/svg">
<path d="M27.7564 6.70608C23.2688 -0.000221686 14.1065 -1.99399 7.00111 2.1748C0.0826717 6.34358 -2.16114 15.4061 2.32649 22.1124L2.70046 22.6562L1.20458 28.0937L6.81412 26.6437L7.37508 27.0062C9.80588 28.275 12.4237 29 15.0415 29C17.8462 29 20.651 28.275 23.0818 26.825C30.0002 22.4749 32.0571 13.5936 27.7564 6.70608ZM23.8297 20.6624C23.0818 21.7499 22.1469 22.475 20.838 22.6562C20.09 22.6562 19.1551 23.0187 15.4154 21.5687C12.2367 20.1187 9.61889 17.7624 7.74905 15.0436C6.62714 13.7749 6.06618 12.1436 5.8792 10.5124C5.8792 9.06235 6.44015 7.79359 7.37508 6.88733C7.74905 6.52483 8.12302 6.34358 8.49699 6.34358H9.43191C9.80588 6.34358 10.1798 6.34358 10.3668 7.06858C10.7408 7.97484 11.6757 10.1499 11.6757 10.3311C11.8627 10.5124 11.8627 10.8749 11.6757 11.0561C11.8627 11.4186 11.6757 11.7811 11.4887 11.9624C11.3018 12.1436 11.1148 12.5061 10.9278 12.6874C10.5538 12.8686 10.3668 13.2311 10.5538 13.5936C11.3018 14.6811 12.2367 15.7686 13.1716 16.6749C14.2935 17.5812 15.4154 18.3062 16.7243 18.8499C17.0983 19.0312 17.4723 19.0312 17.6592 18.6687C17.8462 18.3062 18.7811 17.3999 19.1551 17.0374C19.5291 16.6749 19.7161 16.6749 20.09 16.8562L23.0818 18.3062C23.4558 18.4874 23.8297 18.6687 24.0167 18.8499C24.2037 19.3937 24.2037 20.1187 23.8297 20.6624Z" fill="#136995"/>
</svg>
