<svg width="30" height="30" viewBox="0 0 30 30" fill="none" xmlns="http://www.w3.org/2000/svg">
<path d="M29.3737 7.23903C29.1995 6.61503 28.8673 6.04667 28.4094 5.58899C27.9515 5.13131 27.3834 4.79981 26.7601 4.6266C24.4203 4.00003 15.0143 4.00003 15.0143 4.00003C15.0143 4.00003 5.62609 3.985 3.26193 4.6266C2.63961 4.80057 2.07262 5.13242 1.61576 5.59006C1.1589 6.0477 0.827615 6.61565 0.653937 7.23903C0.209612 9.63843 -0.00922444 12.0743 0.000297826 14.5146C-0.00403766 16.9431 0.214765 19.367 0.653937 21.7554C0.828177 22.3791 1.15956 22.9474 1.61626 23.4059C2.07296 23.8644 2.63965 24.1975 3.26193 24.3734C5.60171 25 15.0143 25 15.0143 25C15.0143 25 24.3969 25 26.7601 24.3734C27.3834 24.1983 27.9512 23.8655 28.4089 23.407C28.8666 22.9485 29.1989 22.3797 29.3737 21.7554C29.8042 19.3684 30.0142 16.941 29.9992 14.5146C30.0142 12.0722 29.8089 9.64104 29.3737 7.23903ZM12.0096 19.0114V9.99801L19.8392 14.5146L12.0096 19.0114Z" fill="#136995"/>
</svg>
