<svg width="20" height="20" viewBox="0 0 20 20" fill="none" xmlns="http://www.w3.org/2000/svg">
<g clip-path="url(#clip0)">
<path d="M10 4.58334C10.7735 4.58334 11.5154 4.89063 12.0624 5.43762C12.6094 5.9846 12.9167 6.72646 12.9167 7.50001C12.9167 8.27356 12.6094 9.01542 12.0624 9.5624C11.5154 10.1094 10.7735 10.4167 10 10.4167C9.22645 10.4167 8.48459 10.1094 7.93761 9.5624C7.39062 9.01542 7.08333 8.27356 7.08333 7.50001C7.08333 6.72646 7.39062 5.9846 7.93761 5.43762C8.48459 4.89063 9.22645 4.58334 10 4.58334V4.58334ZM4.16667 6.66668C4.63333 6.66668 5.06667 6.79168 5.44167 7.01668C5.31667 8.20834 5.66667 9.39168 6.38333 10.3167C5.96667 11.1167 5.13333 11.6667 4.16667 11.6667C3.50363 11.6667 2.86774 11.4033 2.3989 10.9344C1.93006 10.4656 1.66667 9.82972 1.66667 9.16668C1.66667 8.50363 1.93006 7.86775 2.3989 7.39891C2.86774 6.93007 3.50363 6.66668 4.16667 6.66668V6.66668ZM15.8333 6.66668C16.4964 6.66668 17.1323 6.93007 17.6011 7.39891C18.0699 7.86775 18.3333 8.50363 18.3333 9.16668C18.3333 9.82972 18.0699 10.4656 17.6011 10.9344C17.1323 11.4033 16.4964 11.6667 15.8333 11.6667C14.8667 11.6667 14.0333 11.1167 13.6167 10.3167C14.3432 9.37869 14.6805 8.19684 14.5583 7.01668C14.9333 6.79168 15.3667 6.66668 15.8333 6.66668V6.66668ZM4.58333 15.2083C4.58333 13.4833 7.00833 12.0833 10 12.0833C12.9917 12.0833 15.4167 13.4833 15.4167 15.2083V16.6667H4.58333V15.2083ZM0 16.6667V15.4167C0 14.2583 1.575 13.2833 3.70833 13C3.21667 13.5667 2.91667 14.35 2.91667 15.2083V16.6667H0ZM20 16.6667H17.0833V15.2083C17.0833 14.35 16.7833 13.5667 16.2917 13C18.425 13.2833 20 14.2583 20 15.4167V16.6667Z" fill="#136995"/>
</g>
<defs>
<clipPath id="clip0">
<rect width="20" height="20" fill="white"/>
</clipPath>
</defs>
</svg>
